Coordinates
version=1
nRows=16
nColumns=36
inDegrees=yes

Units are S.I. units (second, meters, Newtons, ...)
If the header above contains a line with 'inDegrees', this indicates whether rotational values are in degrees (yes) or radians (no).

endheader
time	pelvis_tilt	pelvis_list	pelvis_rotation	pelvis_tx	pelvis_ty	pelvis_tz	hip_flexion_r	hip_adduction_r	hip_rotation_r	knee_angle_r	knee_angle_r_beta	ankle_angle_r	subtalar_angle_r	mtp_angle_r	hip_flexion_l	hip_adduction_l	hip_rotation_l	knee_angle_l	knee_angle_l_beta	ankle_angle_l	subtalar_angle_l	mtp_angle_l	lumbar_extension	lumbar_bending	lumbar_rotation	arm_flex_r	arm_add_r	arm_rot_r	elbow_flex_r	pro_sup_r	arm_flex_l	arm_add_l	arm_rot_l	elbow_flex_l	pro_sup_l
      2.45833330	     -8.45686798	     -0.79141254	     -0.44141809	      0.10902596	      0.66624330	     -0.09617098	     73.43402767	     -8.64279104	      0.65762766	     93.01425689	      1.62340503	     29.67746810	     -9.38183907	     -7.49999987	     75.27857635	     -6.18419469	      3.95187018	     98.84346574	      1.72514392	     27.56404911	     -0.90644631	     -7.49999987	    -58.44579205	      2.27973088	      2.60871588	     57.11313536	    -29.55113914	     20.05949595	     85.35905711	    101.18984812	     61.57883325	    -27.61643749	     25.53655014	     82.89231724	     85.11224260
      2.46250000	     -8.53638883	     -0.75741935	     -0.44847532	      0.10895932	      0.66120892	     -0.09465716	     73.72016807	     -8.58871856	      0.84214825	     93.54574183	      1.63268120	     29.89720157	     -9.74561339	     -7.49999987	     75.69682296	     -6.23069569	      4.03271722	     99.47516356	      1.73616913	     27.54419719	     -1.39929756	     -7.49999987	    -58.40194184	      2.22103137	      2.56265099	     57.76640319	    -29.32724719	     20.05676720	     85.38346514	     98.97648561	     62.15989760	    -27.35097114	     25.51833551	     82.84962964	     84.20438143
      2.46666670	     -9.14509667	     -0.71678527	     -0.62745235	      0.11170874	      0.65491909	     -0.09135401	     74.71308250	     -8.17394781	      1.04378066	     94.40625858	      1.64770005	     30.70589818	     -9.01721229	     -7.49999987	     76.74031874	     -6.73646701	      4.09457325	    100.38651205	      1.75207516	     28.39298840	     -0.04755088	     -7.49999987	    -57.97718387	      1.98442558	      2.65247699	     57.93056491	    -29.66546163	     20.44026981	     87.26430538	     99.43825628	     62.41561538	    -27.70327131	     25.92027892	     84.13716580	     84.94972565
      2.47083330	     -9.61276424	     -0.60327505	     -0.66082877	      0.11254751	      0.65285839	     -0.09378113	     75.50323737	     -7.91568701	      1.41693204	     94.97545143	      1.65763434	     30.98080460	     -9.19699725	     -7.49999987	     77.56484032	     -6.84428939	      3.93237201	    100.99181229	      1.76263964	     28.44163026	      0.14552374	     -7.49999987	    -57.68729210	      1.77705628	      2.93860707	     57.61763254	    -29.89194626	     19.18570599	     88.98335439	    104.51942539	     62.87230316	    -27.22471261	     25.76195575	     84.65062683	     89.84229316
      2.47500000	     -9.90061213	     -0.52446132	     -0.83460521	      0.11568310	      0.65001234	     -0.09745328	     76.16472965	     -7.74480652	      1.79229016	     95.61689225	      1.66882959	     31.31950384	     -9.17143906	     -7.49999987	     78.12198474	     -6.95256784	      3.72443508	    101.58959857	      1.77307298	     28.58168329	      0.13948970	     -7.49999987	    -57.38953812	      1.70926769	      2.92497500	     57.92575689	    -29.87356218	     19.47153413	     89.70399824	    104.52352657	     63.01198962	    -27.18661123	     25.80569190	     85.00888773	     90.02083524
      2.47916670	    -10.31973765	     -0.45932768	     -0.83120253	      0.11492583	      0.64869551	     -0.09216940	     76.89804185	     -7.52672182	      1.97885379	     96.11880150	      1.67758956	     31.46435708	     -9.61157236	     -7.49999987	     78.73946225	     -7.10974382	      3.63463516	    101.96727733	      1.77966472	     28.57189639	     -0.05794508	     -7.49999987	    -57.14841236	      1.62806721	      2.85769077	     58.13381116	    -29.75271668	     19.54130920	     90.60843354	    104.56293699	     63.36223738	    -27.26360107	     25.84413815	     85.48693535	     90.27314117
      2.48333330	    -10.46517921	     -0.40653661	     -0.96750480	      0.11041572	      0.64464788	     -0.09809913	     77.56266842	     -7.45550773	      2.28932407	     96.43252131	      1.68306500	     31.39875986	     -9.59552270	     -7.49999987	     79.44594232	     -7.06258504	      3.50598988	    102.60565099	      1.79080644	     28.64360561	     -0.10716823	     -7.49999987	    -57.16772060	      1.61408266	      2.87324199	     58.78540585	    -29.60318204	     19.50449180	     90.97080978	    104.58530546	     63.90579530	    -27.14159104	     25.76120330	     85.64334469	     90.36127302
      2.48750000	    -11.11627293	     -0.32841185	     -1.13025875	      0.11330687	      0.64203479	     -0.09993277	     78.67027517	     -7.43630742	      2.68527583	     96.76300398	      1.68883301	     31.36646365	     -9.27242288	     -7.49999987	     80.45018319	     -7.00817994	      3.32916777	    103.02880489	      1.79819187	     28.80130970	     -0.21381025	     -7.49999987	    -56.69756217	      1.61014976	      2.80768871	     59.02395037	    -29.74252304	     20.18816512	     92.14876296	    102.86557555	     64.06612219	    -27.32047773	     25.98849303	     86.10932407	     89.77052154
      2.49166670	    -11.48505850	     -0.25219113	     -1.20050893	      0.11481649	      0.64191162	     -0.09682242	     79.11931590	     -7.38141447	      2.86016798	     96.84068933	      1.69018888	     31.27588277	     -9.28517607	     -7.49999987	     80.86540093	     -7.01879468	      3.22552956	    103.16319297	      1.80053738	     28.73758272	     -0.27221197	     -7.49999987	    -56.64296793	      1.57564564	      2.83907712	     59.22830743	    -29.65940954	     19.92610220	     93.08817809	    106.28899012	     64.35898875	    -27.13207329	     25.45508790	     86.48277238	     94.48496485
      2.49583330	    -11.73264224	     -0.23615591	     -1.20629179	      0.12021823	      0.64056125	     -0.09575349	     79.25505475	     -7.29176489	      2.91713179	     97.00436122	      1.69304549	     31.43320683	     -8.93677223	     -7.49999987	     80.95654119	     -7.18231285	      3.20080731	    103.21229064	      1.80139430	     28.82393308	     -0.01023842	     -7.49999987	    -56.50478294	      1.53284668	      2.74687499	     59.28682596	    -29.48171002	     20.01604546	     93.45034856	    106.28027072	     64.55983242	    -27.04515543	     25.46169408	     86.49713810	     94.59190225
      2.50000000	    -11.98379732	     -0.17957816	     -1.11207453	      0.12309326	      0.64516246	     -0.09286229	     78.91919753	     -7.10104743	      2.88307854	     96.66946149	      1.68720039	     31.49578602	     -8.85755546	     -7.49999987	     80.63778551	     -7.37173267	      3.08133621	    102.84336327	      1.79495530	     28.52363422	     -0.00957613	     -7.49999987	    -56.61380650	      1.31450135	      2.84219235	     58.71278184	    -29.43044550	     19.17651907	     94.18969879	    106.89671489	     65.08235696	    -26.61246586	     25.69151830	     86.39988138	     95.04177298
      2.50416670	    -12.14719058	     -0.18852103	     -1.04538127	      0.12100872	      0.64154223	     -0.09291071	     78.95016018	     -7.04813848	      2.81596601	     96.62873138	      1.68648951	     31.43620450	     -8.83827743	     -7.49999987	     80.68057646	     -7.45258791	      3.17345255	    102.72354238	      1.79286403	     28.46017653	      0.05214211	     -7.49999987	    -56.71492082	      1.23757077	      2.75142908	     58.84673943	    -29.17897609	     19.19899787	     94.27886262	    106.81887813	     65.43486534	    -26.49440519	     25.65229422	     86.37410091	     95.04039229
      2.50833330	    -12.32717520	     -0.12039093	     -0.95254791	      0.12150692	      0.64050929	     -0.09343679	     79.11355164	     -6.97875003	      2.89373584	     96.73840867	      1.68840374	     31.56970466	     -9.04934857	     -7.49999987	     80.82089834	     -7.48038783	      3.06214841	    102.72889430	      1.79295744	     28.38731895	      0.02117470	     -7.49999987	    -56.97577342	      1.10418172	      2.70319665	     58.80815128	    -29.03177585	     18.61339171	     94.89605361	    107.21516463	     66.08698337	    -26.43965449	     26.01219243	     86.25900723	     95.70407334
      2.51250000	    -12.50240604	     -0.10870594	     -0.84764406	      0.12426700	      0.63750643	     -0.09132341	     79.30614893	     -6.80848841	      2.92103681	     97.05548818	      1.69393783	     31.97356624	     -9.34197856	     -7.49999987	     81.08832819	     -7.55984799	      3.12627701	    102.94773854	      1.79677700	     28.48622253	      0.00444914	     -7.49999987	    -57.07577550	      1.04938243	      2.69086312	     58.82553512	    -28.98898977	     18.44049118	     95.21722836	    107.47707492	     66.40745381	    -26.41257347	     26.08574460	     86.12976560	     96.31212788
      2.51666670	    -12.82118371	     -0.13910990	     -0.78619834	      0.12754559	      0.63558227	     -0.09067062	     79.64165268	     -6.66193631	      2.85590293	     97.42515697	      1.70038976	     32.37586875	     -9.48292650	     -7.49999987	     81.52917339	     -7.63865970	      3.26299980	    103.31070010	      1.80311187	     28.67986649	      0.09742474	     -7.49999987	    -57.02164104	      1.03573372	      2.67432279	     58.82789363	    -28.81944390	     18.26609568	     95.46588469	    107.91543374	     66.46768183	    -26.40179350	     25.93925350	     86.12831789	     96.88015299
      2.52083330	    -12.90173792	     -0.19490248	     -0.82087813	      0.13068848	      0.63542161	     -0.09424107	     79.60756018	     -6.70846168	      2.90547120	     97.70797055	      1.70532579	     32.55341261	     -9.58114639	     -7.49999987	     81.55281547	     -7.67256002	      3.23966742	    103.60779043	      1.80829707	     28.89632466	      0.02795757	     -7.49999987	    -57.14089494	      1.09720039	      2.69515474	     58.82196301	    -28.69900937	     18.30514172	     95.54483542	    107.90874670	     66.45979710	    -26.37316123	     25.95115568	     86.11418690	     96.90413185
